<?xml version="1.0" encoding="utf-8"?>
<svg viewBox="0 0 500 500" xmlns="http://www.w3.org/2000/svg" xmlns:bx="https://boxy-svg.com">
  <defs>
    <bx:grid x="0" y="0" width="90.28" height="90.28"/>
  </defs>
  <path d="M 230.724 45.984 H 231.913 A 208.649 208.649 0 0 1 440.562 254.633 V 255.822 A 208.649 208.649 0 0 1 231.913 464.471 H 230.724 A 208.649 208.649 0 0 1 22.075 255.822 V 254.633 A 208.649 208.649 0 0 1 230.724 45.984 Z" style="fill: rgb(233, 0, 125);"/>
  <path d="M 230.724 45.484 L 231.913 45.484 C 289.632 45.506 341.983 68.921 379.804 106.742 C 417.625 144.563 441.04 196.914 441.062 254.633 L 441.062 255.822 C 441.04 313.541 417.625 365.892 379.804 403.713 C 341.983 441.534 289.632 464.949 231.913 464.971 L 230.724 464.971 C 173.005 464.949 120.654 441.534 82.833 403.713 C 45.012 365.892 21.597 313.541 21.575 255.822 L 21.575 254.633 C 21.597 196.914 45.012 144.563 82.833 106.742 C 120.654 68.921 173.005 45.506 230.724 45.484 Z M 83.54 107.449 C 45.845 145.144 22.553 197.118 22.575 254.633 L 22.575 255.822 C 22.553 313.337 45.845 365.311 83.54 403.006 C 121.235 440.701 173.209 463.993 230.724 463.971 L 231.913 463.971 C 289.428 463.993 341.402 440.701 379.097 403.006 C 416.792 365.311 440.084 313.337 440.062 255.822 L 440.062 254.633 C 440.084 197.118 416.792 145.144 379.097 107.449 C 341.402 69.754 289.428 46.462 231.913 46.484 L 230.724 46.484 C 173.209 46.462 121.235 69.754 83.54 107.449 Z" style="fill: none;"/>
  <path d="M 412.138 276.885 A 160.929 160.929 0 0 1 251.209 437.814 A 160.929 160.929 0 0 1 90.28 276.885 A 160.929 160.929 0 0 1 251.209 115.956 A 160.929 160.929 0 0 1 412.138 276.885 Z" style="stroke-width: 10px; fill: rgb(255, 255, 255);"/>
  <path d="M 417.138 276.885 C 417.138 322.346 398.291 364.462 368.539 394.215 C 338.786 423.967 296.67 442.814 251.209 442.814 C 205.748 442.814 163.632 423.967 133.879 394.215 C 104.127 364.462 85.28 322.346 85.28 276.885 C 85.28 231.424 104.127 189.308 133.879 159.555 C 163.632 129.803 205.748 110.956 251.209 110.956 C 296.67 110.956 338.786 129.803 368.539 159.555 C 398.291 189.308 417.138 231.424 417.138 276.885 Z M 361.467 166.627 C 332.975 138.134 294.627 120.956 251.209 120.956 C 207.791 120.956 169.443 138.134 140.951 166.627 C 112.458 195.119 95.28 233.467 95.28 276.885 C 95.28 320.303 112.458 358.651 140.951 387.143 C 169.443 415.636 207.791 432.814 251.209 432.814 C 294.627 432.814 332.975 415.636 361.467 387.143 C 389.96 358.651 407.138 320.303 407.138 276.885 C 407.138 233.467 389.96 195.119 361.467 166.627 Z" style="fill: none;"/>
  <path d="M 149.068 322.076 C 141.788 322.076 135.458 320.426 130.078 317.126 C 124.698 313.833 120.568 309.096 117.688 302.916 C 114.808 296.736 113.368 289.479 113.368 281.146 C 113.368 272.733 114.808 265.436 117.688 259.256 C 120.568 253.076 124.678 248.339 130.018 245.046 C 135.365 241.746 141.715 240.096 149.068 240.096 C 156.421 240.096 162.788 241.746 168.168 245.046 C 173.548 248.339 177.678 253.056 180.558 259.196 C 183.438 265.336 184.878 272.613 184.878 281.026 C 184.878 289.439 183.438 296.736 180.558 302.916 C 177.678 309.096 173.548 313.833 168.168 317.126 C 162.788 320.426 156.421 322.076 149.068 322.076 Z M 149.068 315.826 C 158.088 315.826 165.098 312.793 170.098 306.726 C 175.105 300.659 177.608 292.093 177.608 281.026 C 177.608 269.959 175.125 261.413 170.158 255.386 C 165.191 249.366 158.161 246.356 149.068 246.356 C 140.048 246.356 133.055 249.386 128.088 255.446 C 123.121 261.513 120.638 270.039 120.638 281.026 C 120.638 292.019 123.121 300.566 128.088 306.666 C 133.055 312.773 140.048 315.826 149.068 315.826 ZM 227.177 322.076 C 221.57 322.076 216.17 321.186 210.977 319.406 C 205.784 317.626 201.707 315.219 198.747 312.186 C 197.767 311.353 197.277 310.253 197.277 308.886 C 197.277 308.053 197.524 307.333 198.017 306.726 C 198.504 306.119 199.05 305.816 199.657 305.816 C 200.417 305.816 201.29 306.196 202.277 306.956 C 209.404 312.869 217.704 315.826 227.177 315.826 C 234.077 315.826 239.4 314.443 243.147 311.676 C 246.9 308.909 248.777 304.986 248.777 299.906 C 248.777 296.946 247.867 294.556 246.047 292.736 C 244.234 290.923 241.924 289.503 239.117 288.476 C 236.31 287.456 232.557 286.413 227.857 285.346 C 221.644 283.986 216.624 282.586 212.797 281.146 C 208.964 279.706 205.724 277.526 203.077 274.606 C 200.424 271.686 199.097 267.763 199.097 262.836 C 199.097 258.363 200.29 254.403 202.677 250.956 C 205.064 247.509 208.417 244.836 212.737 242.936 C 217.057 241.043 222.02 240.096 227.627 240.096 C 232.86 240.096 237.79 240.949 242.417 242.656 C 247.037 244.363 250.864 246.806 253.897 249.986 C 254.884 250.973 255.377 252.073 255.377 253.286 C 255.377 254.119 255.13 254.839 254.637 255.446 C 254.144 256.053 253.594 256.356 252.987 256.356 C 252.227 256.356 251.354 255.976 250.367 255.216 C 246.274 251.883 242.58 249.573 239.287 248.286 C 235.987 246.999 232.1 246.356 227.627 246.356 C 220.887 246.356 215.62 247.796 211.827 250.676 C 208.04 253.556 206.147 257.573 206.147 262.726 C 206.147 265.833 206.98 268.353 208.647 270.286 C 210.314 272.219 212.49 273.753 215.177 274.886 C 217.87 276.026 221.34 277.126 225.587 278.186 L 228.537 278.866 C 234.677 280.386 239.53 281.789 243.097 283.076 C 246.657 284.363 249.67 286.353 252.137 289.046 C 254.597 291.739 255.827 295.359 255.827 299.906 C 255.827 304.226 254.634 308.073 252.247 311.446 C 249.86 314.819 246.487 317.433 242.127 319.286 C 237.767 321.146 232.784 322.076 227.177 322.076 ZM 275.272 321.166 C 274.212 321.166 273.322 320.826 272.602 320.146 C 271.882 319.459 271.522 318.626 271.522 317.646 L 271.522 244.536 C 271.522 243.549 271.882 242.713 272.602 242.026 C 273.322 241.346 274.212 241.006 275.272 241.006 L 318.472 241.006 C 319.458 241.006 320.238 241.273 320.812 241.806 C 321.378 242.333 321.662 243.089 321.662 244.076 C 321.662 244.989 321.378 245.709 320.812 246.236 C 320.238 246.769 319.458 247.036 318.472 247.036 L 278.452 247.036 L 278.452 277.396 L 316.202 277.396 C 317.188 277.396 317.965 277.659 318.532 278.186 C 319.098 278.719 319.382 279.479 319.382 280.466 C 319.382 281.446 319.098 282.203 318.532 282.736 C 317.965 283.269 317.188 283.536 316.202 283.536 L 278.452 283.536 L 278.452 315.136 L 318.472 315.136 C 319.458 315.136 320.238 315.383 320.812 315.876 C 321.378 316.369 321.662 317.109 321.662 318.096 C 321.662 319.083 321.378 319.839 320.812 320.366 C 320.238 320.899 319.458 321.166 318.472 321.166 L 275.272 321.166 ZM 340.873 321.736 C 339.813 321.736 338.959 321.413 338.313 320.766 C 337.673 320.126 337.353 319.236 337.353 318.096 L 337.353 244.536 C 337.353 243.549 337.713 242.713 338.433 242.026 C 339.153 241.346 340.043 241.006 341.103 241.006 L 367.703 241.006 C 376.043 241.006 382.506 243.016 387.093 247.036 C 391.679 251.049 393.973 256.733 393.973 264.086 C 393.973 271.519 391.659 277.263 387.033 281.316 C 382.413 285.369 375.969 287.396 367.703 287.396 L 344.403 287.396 L 344.403 318.096 C 344.403 319.236 344.079 320.126 343.433 320.766 C 342.786 321.413 341.933 321.736 340.873 321.736 Z M 367.253 281.366 C 380.366 281.366 386.923 275.606 386.923 264.086 C 386.923 252.719 380.366 247.036 367.253 247.036 L 344.403 247.036 L 344.403 281.366 L 367.253 281.366 Z" transform="matrix(1, 0, 0, 1, 0, 0)" style="fill: rgb(233, 0, 125); text-transform: capitalize; white-space: pre;"/>
  <path d="M 149.068 322.576 C 141.725 322.576 135.264 320.881 129.817 317.552 C 124.379 314.21 120.144 309.37 117.235 303.127 C 114.33 296.893 112.868 289.528 112.868 281.146 C 112.868 272.685 114.33 265.279 117.235 259.045 C 120.144 252.802 124.358 247.962 129.755 244.62 C 135.171 241.291 141.652 239.596 149.068 239.596 C 156.484 239.596 162.981 241.291 168.429 244.62 C 173.867 247.961 178.101 252.781 181.011 258.984 C 183.916 265.178 185.378 272.564 185.378 281.026 C 185.378 289.487 183.916 296.893 181.011 303.127 C 178.102 309.37 173.867 314.21 168.429 317.552 C 162.981 320.881 156.484 322.576 149.068 322.576 Z M 167.907 316.7 C 173.229 313.456 177.254 308.822 180.105 302.705 C 182.96 296.579 184.378 289.391 184.378 281.026 C 184.378 272.662 182.96 265.494 180.105 259.408 C 177.255 253.331 173.229 248.717 167.907 245.472 C 162.595 242.201 156.358 240.596 149.068 240.596 C 141.778 240.596 135.559 242.201 130.281 245.471 C 124.998 248.716 120.992 253.35 118.141 259.467 C 115.286 265.593 113.868 272.781 113.868 281.146 C 113.868 289.43 115.286 296.579 118.141 302.705 C 120.992 308.822 125.017 313.455 130.339 316.7 C 135.651 319.971 141.851 321.576 149.068 321.576 C 156.358 321.576 162.595 319.971 167.907 316.7 Z M 127.7 306.982 C 122.687 300.793 120.138 292.089 120.138 281.026 C 120.138 269.969 122.688 261.285 127.701 255.129 C 132.762 248.998 139.949 245.856 149.068 245.856 C 158.259 245.856 165.482 248.977 170.544 255.068 C 175.558 261.184 178.108 269.889 178.108 281.026 C 178.108 292.163 175.538 300.888 170.484 307.044 C 165.39 313.181 158.187 316.326 149.068 316.326 C 139.948 316.326 132.761 313.16 127.7 306.982 Z M 149.068 315.326 C 157.989 315.326 164.806 312.405 169.712 306.408 C 174.672 300.43 177.108 292.023 177.108 281.026 C 177.108 270.029 174.692 261.642 169.772 255.704 C 164.9 249.755 158.063 246.856 149.068 246.856 C 140.147 246.856 133.348 249.774 128.475 255.763 C 123.554 261.741 121.138 270.109 121.138 281.026 C 121.138 291.949 123.555 300.338 128.476 306.35 C 133.349 312.386 140.148 315.326 149.068 315.326 Z M 227.177 322.576 C 221.529 322.576 216.047 321.672 210.815 319.879 C 205.574 318.083 201.412 315.616 198.401 312.548 C 197.369 311.627 196.777 310.355 196.777 308.886 C 196.777 307.972 197.093 307.095 197.628 306.412 C 198.188 305.744 198.929 305.316 199.657 305.316 C 200.517 305.316 201.557 305.78 202.596 306.571 C 209.648 312.441 217.788 315.326 227.177 315.326 C 234.014 315.326 239.189 314 242.85 311.274 C 246.526 308.6 248.277 304.878 248.277 299.906 C 248.277 297.035 247.441 294.837 245.693 293.09 C 243.921 291.318 241.708 289.951 238.946 288.946 C 236.158 287.932 232.436 286.898 227.748 285.834 C 221.521 284.471 216.469 283.061 212.621 281.614 C 208.737 280.147 205.399 277.901 202.707 274.942 C 200.002 271.934 198.597 267.843 198.597 262.836 C 198.597 258.291 199.835 254.182 202.266 250.671 C 204.694 247.165 208.161 244.411 212.536 242.478 C 216.91 240.568 221.973 239.596 227.627 239.596 C 232.903 239.596 237.919 240.468 242.59 242.187 C 247.258 243.918 251.171 246.414 254.251 249.632 C 255.289 250.694 255.877 251.971 255.877 253.286 C 255.877 254.2 255.572 255.087 255.025 255.761 C 254.473 256.441 253.715 256.856 252.987 256.856 C 252.127 256.856 251.091 256.395 250.051 255.604 C 245.984 252.289 242.357 250.018 239.105 248.752 C 235.855 247.479 232.059 246.856 227.627 246.856 C 220.953 246.856 215.837 248.236 212.13 251.074 C 208.417 253.862 206.647 257.68 206.647 262.726 C 206.647 265.755 207.421 268.099 209.026 269.959 C 210.653 271.847 212.732 273.319 215.372 274.426 C 218.043 275.557 221.474 276.644 225.704 277.7 L 228.657 278.381 C 234.807 279.903 239.685 281.314 243.267 282.606 C 246.88 283.919 249.993 285.976 252.506 288.709 C 255.018 291.49 256.327 295.279 256.327 299.906 C 256.327 304.3 255.087 308.299 252.655 311.735 C 250.226 315.167 246.738 317.861 242.323 319.746 C 237.911 321.622 232.83 322.576 227.177 322.576 Z M 241.931 318.826 C 246.235 317.006 249.494 314.471 251.839 311.157 C 254.181 307.847 255.327 304.152 255.327 299.906 C 255.327 295.439 254.176 291.988 251.768 289.383 C 249.347 286.73 246.434 284.807 242.927 283.546 C 239.375 282.264 234.55 280.869 228.421 279.352 L 225.475 278.673 C 221.213 277.609 217.697 276.495 214.982 275.346 C 212.248 274.187 209.975 272.591 208.268 270.613 C 206.539 268.607 205.647 265.911 205.647 262.726 C 205.647 257.466 207.663 253.25 211.524 250.278 C 215.403 247.356 220.821 245.856 227.627 245.856 C 232.141 245.856 236.119 246.519 239.469 247.82 C 242.803 249.128 246.562 251.476 250.679 254.825 C 251.61 255.55 252.327 255.856 252.987 255.856 C 253.473 255.856 253.815 255.665 254.249 255.131 C 254.688 254.591 254.877 254.038 254.877 253.286 C 254.877 252.175 254.479 251.252 253.543 250.34 C 250.557 247.198 246.816 244.808 242.244 243.125 C 237.661 241.43 232.817 240.596 227.627 240.596 C 222.067 240.596 217.205 241.517 212.938 243.394 C 208.673 245.26 205.434 247.853 203.088 251.241 C 200.745 254.624 199.597 258.435 199.597 262.836 C 199.597 267.683 200.846 271.438 203.447 274.27 C 206.048 277.15 209.191 279.265 212.973 280.678 C 216.779 282.111 221.765 283.501 227.964 284.858 C 232.675 285.927 236.462 286.98 239.288 288.006 C 242.14 289.055 244.547 290.528 246.401 292.382 C 248.293 294.275 249.277 296.857 249.277 299.906 C 249.277 305.094 247.274 309.218 243.444 312.078 C 239.611 314.886 234.14 316.326 227.177 316.326 C 217.62 316.326 209.166 313.302 201.964 307.346 C 201.033 306.621 200.317 306.316 199.657 306.316 C 199.171 306.316 198.82 306.494 198.407 307.039 C 197.956 307.569 197.777 308.134 197.777 308.886 C 197.777 310.151 198.157 311.061 199.071 311.805 C 201.979 314.797 205.994 317.169 211.139 318.933 C 216.293 320.7 221.611 321.576 227.177 321.576 C 232.738 321.576 237.623 320.67 241.931 318.826 Z M 275.272 321.666 C 274.123 321.65 273.059 321.24 272.257 320.508 C 271.48 319.739 271.043 318.725 271.022 317.646 L 271.022 244.536 C 271.042 243.45 271.482 242.431 272.259 241.662 C 273.061 240.931 274.123 240.522 275.272 240.506 L 318.472 240.506 C 319.539 240.519 320.49 240.854 321.153 241.44 C 321.782 242.062 322.162 243.001 322.162 244.076 C 322.162 245.081 321.78 245.984 321.152 246.602 C 320.489 247.189 319.539 247.523 318.472 247.536 L 278.952 247.536 L 278.952 276.896 L 316.202 276.896 C 317.268 276.909 318.218 277.241 318.875 277.822 C 319.504 278.449 319.882 279.391 319.882 280.466 C 319.882 281.534 319.503 282.473 318.874 283.1 C 318.217 283.688 317.269 284.022 316.202 284.036 L 278.952 284.036 L 278.952 314.636 L 318.472 314.636 C 319.533 314.648 320.479 314.957 321.14 315.499 C 321.776 316.091 322.162 317.019 322.162 318.096 C 322.162 319.171 321.782 320.11 321.152 320.732 C 320.489 321.319 319.539 321.653 318.472 321.666 Z M 318.472 320.666 C 319.377 320.679 319.987 320.48 320.472 320 C 320.974 319.568 321.162 318.995 321.162 318.096 C 321.162 317.199 320.981 316.648 320.485 316.254 C 319.998 315.811 319.383 315.624 318.472 315.636 L 277.952 315.636 L 277.952 283.036 L 316.202 283.036 C 317.107 283.05 317.712 282.851 318.189 282.372 C 318.693 281.933 318.882 281.358 318.882 280.466 C 318.882 279.567 318.694 278.989 318.19 278.551 C 317.714 278.079 317.108 277.883 316.202 277.896 L 277.952 277.896 L 277.952 246.536 L 318.472 246.536 C 319.377 246.549 319.987 246.35 320.472 245.87 C 320.975 245.434 321.162 244.897 321.162 244.076 C 321.162 243.177 320.974 242.604 320.472 242.172 C 319.987 241.693 319.377 241.493 318.472 241.506 L 275.272 241.506 C 274.301 241.49 273.584 241.76 272.946 242.389 C 272.284 242.993 272.002 243.648 272.022 244.536 L 272.022 317.646 C 272.001 318.527 272.283 319.178 272.946 319.783 C 273.584 320.411 274.301 320.682 275.272 320.666 Z M 340.873 322.236 C 339.725 322.236 338.694 321.824 337.959 321.119 C 337.261 320.387 336.868 319.321 336.853 318.096 L 336.853 244.536 C 336.873 243.45 337.313 242.431 338.09 241.662 C 338.892 240.931 339.954 240.522 341.103 240.506 L 367.703 240.506 C 376.117 240.517 382.745 242.589 387.422 246.66 C 392.076 250.767 394.473 256.639 394.473 264.086 C 394.473 271.612 392.056 277.544 387.363 281.692 C 382.653 285.796 376.044 287.884 367.703 287.896 L 344.903 287.896 L 344.903 318.096 C 344.888 319.322 344.49 320.388 343.786 321.12 C 343.05 321.824 342.022 322.236 340.873 322.236 Z M 343.079 320.412 C 343.666 319.865 343.918 319.15 343.903 318.096 L 343.903 286.896 L 367.703 286.896 C 375.894 286.908 382.173 284.943 386.703 280.94 C 391.262 276.982 393.473 271.426 393.473 264.086 C 393.473 256.827 391.283 251.331 386.764 247.412 C 382.267 243.443 375.969 241.495 367.703 241.506 L 341.103 241.506 C 340.132 241.49 339.415 241.76 338.777 242.389 C 338.115 242.993 337.833 243.648 337.853 244.536 L 337.853 318.096 C 337.838 319.151 338.085 319.865 338.667 320.412 C 339.224 321.002 339.901 321.236 340.873 321.236 C 341.844 321.236 342.521 321.002 343.079 320.412 Z M 343.903 246.536 L 367.253 246.536 C 373.879 246.546 378.975 248.01 382.333 250.921 C 385.7 253.839 387.423 258.313 387.423 264.086 C 387.423 269.935 385.702 274.464 382.335 277.422 C 378.978 280.371 373.88 281.856 367.253 281.866 L 343.903 281.866 Z M 367.253 280.866 C 373.739 280.876 378.476 279.481 381.675 276.67 C 384.866 273.868 386.423 269.757 386.423 264.086 C 386.423 258.492 384.867 254.441 381.678 251.676 C 378.479 248.903 373.74 247.526 367.253 247.536 L 344.903 247.536 L 344.903 280.866 Z" style="fill: none;" transform="matrix(1, 0, 0, 1, 0, 0)"/>
</svg>