<?xml version="1.0" encoding="UTF-8" standalone="no"?>
<svg
   xmlns:dc="http://purl.org/dc/elements/1.1/"
   xmlns:cc="http://creativecommons.org/ns#"
   xmlns:rdf="http://www.w3.org/1999/02/22-rdf-syntax-ns#"
   xmlns:svg="http://www.w3.org/2000/svg"
   xmlns="http://www.w3.org/2000/svg"
   xmlns:sodipodi="http://sodipodi.sourceforge.net/DTD/sodipodi-0.dtd"
   xmlns:inkscape="http://www.inkscape.org/namespaces/inkscape"
   id="Layer_1"
   viewBox="0 0 66.1 24.7"
   version="1.1"
   sodipodi:docname="1e9652bec24bcaacf5285be19746a750.svg"
   inkscape:version="0.92.3 (2405546, 2018-03-11)">
  <sodipodi:namedview
     pagecolor="#ffffff"
     bordercolor="#666666"
     borderopacity="1"
     objecttolerance="10"
     gridtolerance="10"
     guidetolerance="10"
     inkscape:pageopacity="0"
     inkscape:pageshadow="2"
     inkscape:window-width="1533"
     inkscape:window-height="836"
     id="namedview25"
     showgrid="false"
     inkscape:zoom="5.6568543"
     inkscape:cx="62.950894"
     inkscape:cy="0.86160334"
     inkscape:window-x="67"
     inkscape:window-y="27"
     inkscape:window-maximized="1"
     inkscape:current-layer="Layer_1" />
  <metadata
     id="metadata29">
    <rdf:RDF>
      <cc:Work
         rdf:about="">
        <dc:format>image/svg+xml</dc:format>
        <dc:type
           rdf:resource="http://purl.org/dc/dcmitype/StillImage" />
      </cc:Work>
    </rdf:RDF>
  </metadata>
  <defs
     id="defs27" />
  <style
     id="style2">.st0{fill:#fff}.st1{fill:#f9a83a}</style>
  <g
     id="g4764"
     transform="matrix(1.505732,0,0,1.505732,3.500748,-5.6687907)">
    <path
       style="fill:#ea584d;stroke:#ffffff;stroke-width:0.5;stroke-miterlimit:4;stroke-dasharray:none"
       d="M 4.8736742,19.365513 C 4.3829144,18.873076 3.9813837,18.431368 3.9813837,18.383939 c 0,-0.152884 5.4706715,-5.560142 5.565842,-5.501323 0.050543,0.03124 0.4768823,0.451404 0.9474253,0.933706 0.470543,0.482302 0.873402,0.895019 0.895242,0.917145 0.05493,0.05565 -5.4239942,5.527382 -5.5346466,5.527382 -0.049107,0 -0.4908124,-0.402901 -0.9815722,-0.895336 z m 4.8632223,-0.02031 -0.9125339,-0.91565 0.9125339,-0.91565 c 0.5018945,-0.503607 0.9531785,-0.915649 1.0028555,-0.915649 0.04967,0 0.499193,0.410269 0.998927,0.91171 l 0.908607,0.91171 -0.904924,0.91959 c -0.497708,0.505773 -0.947226,0.919589 -0.998927,0.919589 -0.0517,0 -0.504644,-0.412042 -1.0065385,-0.91565 z M 1.2110745,15.702916 C 0.72031469,15.21048 0.31878402,14.768305 0.31878402,14.720305 c 0,-0.048 0.41228456,-0.498156 0.91618738,-1.000345 l 0.9161882,-0.913069 0.9794934,0.979495 0.9794934,0.979492 -0.9130699,0.916188 c -0.5021878,0.503903 -0.9537139,0.916188 -1.0033904,0.916188 -0.049673,0 -0.4918518,-0.402902 -0.9826116,-0.895338 z M 11.568178,13.851286 8.8222503,11.10432 9.7814987,10.145072 10.740747,9.1858243 l 2.789018,2.7900407 2.789018,2.79004 -0.913057,0.916173 c -0.50218,0.503897 -0.953232,0.916176 -1.002338,0.916176 -0.04911,0 -1.324949,-1.236136 -2.83521,-2.746968 z M 3.0434133,12.651725 C 1.5448671,11.152613 0.31878402,9.8846947 0.31878402,9.8341304 c 0,-0.050567 0.41404989,-0.4993814 0.92011128,-0.9973732 l 0.9201113,-0.9054383 2.7856348,2.7846151 2.785634,2.784615 -0.9355079,0.938417 c -0.514529,0.51613 -0.9560312,0.938418 -0.9811159,0.938418 -0.025088,0 -1.271692,-1.226547 -2.7702383,-2.725659 z M 6.0945402,10.819447 C 5.6037804,10.327012 5.2022497,9.8853041 5.2022497,9.8378749 c 0,-0.1139812 5.4255053,-5.535494 5.5395713,-5.535494 0.11377,0 1.872831,1.7628921 1.872831,1.8769099 0,0.1139812 -5.4255036,5.5354942 -5.5395694,5.5354942 -0.04854,0 -0.4897826,-0.402903 -0.9805424,-0.895338 z m 7.3251978,0 c -0.49076,-0.492435 -0.892291,-0.933239 -0.892291,-0.9795643 0,-0.1139349 1.760968,-1.8749029 1.874903,-1.8749029 0.113935,0 1.874902,1.760968 1.874902,1.8749029 0,0.1139349 -1.760967,1.8749023 -1.874902,1.8749023 -0.04967,0 -0.491851,-0.402903 -0.982612,-0.895338 z M 4.9010076,7.1799291 C 4.3952142,6.6822013 3.9813837,6.2326686 3.9813837,6.1809652 c 0,-0.051699 0.4122846,-0.5048856 0.9161874,-1.0070733 l 0.9161874,-0.91307 0.9592165,0.9592165 0.9592173,0.9592173 -0.95578,0.9528157 -0.95578,0.9528157 z"
       id="path4893"
       inkscape:connector-curvature="0" />
    <path
       style="fill:#63b143;stroke:#ffffff;stroke-width:0.5;stroke-miterlimit:4;stroke-dasharray:none"
       d="M 9.7368957,19.345201 8.8243626,18.42955 9.7368957,17.5139 c 0.5018943,-0.503607 0.9531793,-0.915649 1.0028563,-0.915649 0.04967,0 0.499193,0.410269 0.998927,0.91171 l 0.908608,0.91171 -0.904925,0.91959 c -0.497708,0.505774 -0.947226,0.919589 -0.998927,0.919589 -0.0517,0 -0.504645,-0.412043 -1.0065393,-0.915649 z m 1.8312833,-5.493917 -2.7459287,-2.746967 0.9592484,-0.959248 0.9592483,-0.9592479 2.789018,2.7900409 2.789018,2.79004 -0.913056,0.916174 c -0.502181,0.503896 -0.953232,0.916175 -1.002338,0.916175 -0.04911,0 -1.32495,-1.236135 -2.83521,-2.746967 z M 3.0434133,12.651725 C 1.5448671,11.152613 0.31878322,9.8846947 0.31878322,9.8341304 c 0,-0.050567 0.41404989,-0.4993814 0.92011208,-0.9973724 l 0.9201113,-0.9054383 2.7856348,2.7846143 2.785634,2.784616 -0.9355079,0.938417 c -0.514529,0.516129 -0.9560312,0.938418 -0.9811159,0.938418 -0.025088,0 -1.271692,-1.226547 -2.7702383,-2.72566 z M 4.9010076,7.1799299 C 4.3952142,6.6822029 3.9813837,6.2326694 3.9813837,6.1809668 c 0,-0.051699 0.4122838,-0.5048856 0.9161874,-1.0070733 L 5.8137585,4.2608235 6.772975,5.22004 7.7321923,6.1792573 6.7764123,7.132073 5.8206323,8.0848887 Z"
       id="path4891"
       inkscape:connector-curvature="0" />
  </g>
  <g
     transform="matrix(0.05973901,0,0,0.05973901,33.998973,-2.4927783)"
     id="g3953">
    <rect
       id="rect6"
       ry="208.649"
       rx="208.649"
       style="fill:#e9007d"
       height="418.487"
       width="418.487"
       y="45.984001"
       x="22.075001" />
    <circle
       id="circle8"
       r="160.929"
       cy="276.88501"
       cx="251.209"
       style="fill:#ffffff;stroke-width:10px" />
    <text
       id="text10"
       y="321.16599"
       x="106.088"
       style="font-weight:300;font-size:113.69999695px;font-family:Nunito;text-transform:capitalize;white-space:pre;fill:#e9007d">OSEP</text>
  </g>
</svg>
