<?xml version="1.0" encoding="UTF-8" standalone="no"?>
<svg
   xmlns:dc="http://purl.org/dc/elements/1.1/"
   xmlns:cc="http://creativecommons.org/ns#"
   xmlns:rdf="http://www.w3.org/1999/02/22-rdf-syntax-ns#"
   xmlns:svg="http://www.w3.org/2000/svg"
   xmlns="http://www.w3.org/2000/svg"
   xmlns:sodipodi="http://sodipodi.sourceforge.net/DTD/sodipodi-0.dtd"
   xmlns:inkscape="http://www.inkscape.org/namespaces/inkscape"
   id="Layer_1"
   viewBox="0 0 66.1 24.7"
   version="1.1"
   sodipodi:docname="1e9652bec24bcaacf5285be19746a750.svg"
   inkscape:version="0.92.3 (2405546, 2018-03-11)">
  <sodipodi:namedview
     pagecolor="#ffffff"
     bordercolor="#666666"
     borderopacity="1"
     objecttolerance="10"
     gridtolerance="10"
     guidetolerance="10"
     inkscape:pageopacity="0"
     inkscape:pageshadow="2"
     inkscape:window-width="1533"
     inkscape:window-height="836"
     id="namedview25"
     showgrid="false"
     inkscape:zoom="7.4886537"
     inkscape:cx="22.807681"
     inkscape:cy="12.35"
     inkscape:window-x="67"
     inkscape:window-y="27"
     inkscape:window-maximized="1"
     inkscape:current-layer="Layer_1" />
  <metadata
     id="metadata29">
    <rdf:RDF>
      <cc:Work
         rdf:about="">
        <dc:format>image/svg+xml</dc:format>
        <dc:type
           rdf:resource="http://purl.org/dc/dcmitype/StillImage" />
      </cc:Work>
    </rdf:RDF>
  </metadata>
  <defs
     id="defs27" />
  <style
     id="style2">.st0{fill:#fff}.st1{fill:#f9a83a}</style>
  <switch
     id="switch22"
     transform="matrix(0.66239768,0,0,1,21.787888,0.18823271)">
    <g
       id="g20">
      <g
         id="g18">
        <g
           id="g6">
          <path
             id="path4"
             class="st0"
             d="m 60.2,24.1 c -0.8,0.1 -1.3,0.1 -1.5,0.2 -0.4,0.2 -1.3,0.4 -2.4,0.4 -1.4,0 -2.7,-0.5 -3.8,-1.3 h -0.8 c -0.3,0 -0.5,0 -0.8,-0.1 -1.1,0.4 -2.1,0.4 -2.7,0.4 H 48 c -1.4,0.1 -2.8,-0.2 -4,-0.8 -0.6,0.2 -1.1,0.3 -1.7,0.3 l -3.7,0.1 c -1.7,0 -3.2,-0.6 -4.4,-1.7 -0.5,0 -1,-0.1 -1.4,-0.2 -0.6,0.7 -1.4,1.3 -2.4,1.8 -1.9,0.9 -4,1 -6,0.2 -0.2,-0.1 -0.5,-0.2 -0.7,-0.3 l -2.3,0.3 h -0.7 c -0.3,0.1 -0.5,0.3 -0.7,0.4 -1.5,0.7 -2.9,0.7 -3.5,0.7 H 16 c -1.7,0 -3.4,-0.5 -4.7,-1.4 -0.4,0.1 -0.9,0.2 -1.3,0.2 -0.9,0.6 -2,1 -3.2,1.1 H 6.4 c -3.3,0 -6,-2.5 -6.3,-5.8 V 18.5 C 0.1,18 0,16.9 0.1,15.7 0.1,15.1 0.2,14.2 0.2,14 0.2,13.2 0.4,12.4 0.7,11.6 0.5,10.8 0.6,10 0.7,9.2 V 8.9 C 0.8,8.2 1,6.8 1.7,5.4 3,3 5.4,1.5 8.1,1.5 9,1 9.9,0.8 10.9,0.8 h 0.3 c 2,0.1 3.8,1.1 4.9,2.7 C 17,2.7 18.1,2.2 19.3,2 21.7,1.7 23.7,1.6 25.4,1.9 26.3,1.1 27.5,0.5 28.7,0.4 L 31.3,0 h 0.8 c 1.5,0 3,0.6 4.2,1.6 h 0.2 l 3.8,-0.1 c 1.6,0 3,-0.1 3.3,-0.1 h 0.5 c 1.4,0 2.9,0.5 4,1.4 1.1,-0.8 2.4,-1.2 3.8,-1.2 h 1.3 c 1,-0.6 2.1,-1 3.3,-1 l 3.2,-0.1 h 0.1 c 3.4,0 6.2,2.8 6.3,6.2 0,1.6 -0.5,3 -1.5,4.2 v 2.9 c 0.9,1 1.4,2.3 1.5,3.7 0.2,3.4 -2.4,6.3 -5.9,6.6 z"
             inkscape:connector-curvature="0"
             style="fill:#ffffff" />
        </g>
        <path
           id="path8"
           class="st1"
           d="m 60,20.5 c -1.3,0.1 -2.1,0.2 -2.3,0.3 l -0.1,0.1 c -0.3,0.1 -0.7,0.3 -1.2,0.3 -0.6,0 -1.3,-0.2 -1.8,-0.7 -0.2,-0.2 -0.4,-0.4 -0.5,-0.6 h -2.3 c -0.4,0 -0.8,-0.1 -1.1,-0.3 -0.1,0.1 -0.3,0.1 -0.4,0.2 -0.8,0.4 -1.5,0.4 -2,0.4 h -0.5 c -1.5,0 -2.7,-0.5 -3.5,-1.4 -0.5,0.5 -1.2,0.8 -1.9,0.8 l -3.7,0.1 c -1.3,0 -2.5,-1 -2.7,-2.2 -0.5,0.3 -1,0.5 -1.6,0.5 -0.6,0 -1.2,-0.2 -1.7,-0.5 -0.1,-0.1 -0.2,-0.2 -0.3,-0.2 -0.3,0.2 -0.7,0.2 -1.1,0.2 H 31 c -0.4,1.2 -1.1,2 -2.2,2.5 -0.5,0.2 -1.1,0.4 -1.6,0.4 -0.5,0 -1.1,-0.1 -1.6,-0.3 -0.5,-0.2 -0.9,-0.5 -1.2,-0.8 -0.2,0.1 -0.4,0.1 -0.6,0.2 l -2.9,0.4 h -0.4 c -0.3,0 -0.5,0 -0.8,-0.1 -0.4,0.4 -0.9,0.6 -1.3,0.8 -0.8,0.4 -1.5,0.4 -2,0.4 h -0.5 c -1.8,0 -3.2,-0.8 -4,-1.9 -0.8,0.5 -1.8,0.8 -2.7,0.8 H 8.6 C 8.6,20 8.5,20 8.5,20.1 8,20.6 7.3,21 6.6,21 H 6.4 C 5,21 3.8,19.9 3.7,18.4 v -0.1 c 0,-0.5 -0.1,-1.4 0,-2.4 0,-0.7 0.1,-1.8 0.1,-1.8 0,-0.7 0.3,-1.3 0.7,-1.8 C 4.1,11.5 4,10.6 4.2,9.6 V 9.4 C 4.3,8.8 4.4,7.9 4.8,7 5.5,5.7 6.8,5 8.3,5 H 9 c 0.5,-0.4 1.1,-0.7 1.8,-0.7 1.5,0 2.7,1.3 2.7,2.8 V 8.2 C 14,8 14.6,7.9 15.2,7.9 c 0.3,0 0.5,0 0.8,0.1 0.4,-0.5 1,-0.8 1.6,-0.9 0.1,-0.2 0.2,-0.3 0.3,-0.5 0.4,-0.6 1.1,-1 1.8,-1.1 0.6,-0.1 1.8,-0.2 3.2,-0.2 1.6,0 2.9,0.2 3.9,0.7 0.3,-1.1 1.1,-1.9 2.3,-2.1 l 2.6,-0.4 h 0.4 c 0.8,0 1.5,0.3 2,0.9 0.2,0.2 0.5,0.6 0.6,0.9 l 0.1,0.3 c 0.5,-0.3 1,-0.5 1.6,-0.5 L 40.3,5 c 1.9,0 3.6,-0.1 3.6,-0.2 h 0.2 c 0.7,0 1.5,0.3 2,0.8 0.4,0.4 0.7,0.9 0.8,1.5 h 0.2 c 0.3,0 0.5,0 0.8,0.1 0.4,-0.5 1,-0.8 1.6,-0.9 C 50,5.6 50.9,5 51.9,5 h 2.6 C 55,4.4 55.7,4 56.6,4 h 3.2 c 1.5,0 2.7,1.2 2.8,2.7 0,1.1 -0.6,2.1 -1.5,2.5 v 6.1 c 0.8,0.4 1.4,1.3 1.5,2.3 0.1,1.5 -1.1,2.8 -2.6,2.9 z"
           inkscape:connector-curvature="0"
           style="fill:#f9a83a" />
        <path
           id="path10"
           class="st1"
           d="m 32.3,8.5 -0.7,3.6 2,-0.3 z"
           inkscape:connector-curvature="0"
           style="fill:#f9a83a" />
        <path
           id="path12"
           class="st0"
           d="M 8.4,12 C 7.7,11.9 7.3,11.4 7.5,10 V 9.8 C 7.7,8.6 7.8,8.3 8.4,8.3 c 0.2,0 0.4,0.1 0.6,0.3 0.2,0.2 0.6,0.5 0.8,1.1 0.2,0.4 0.2,0.7 0.3,1 v 0.4 c 0,0.2 0.2,0.4 0.5,0.5 0.3,0.1 0.6,-0.2 0.7,-0.5 0,0 0.2,-3.8 0.2,-3.9 0,-0.3 -0.3,-0.6 -0.6,-0.6 -0.3,0 -0.6,0.3 -0.6,0.6 V 8.3 C 9.8,7.8 9.2,7.3 8.5,7.3 6.6,7 6.4,8.7 6.3,9.7 v 0.2 c -0.2,1.9 0.4,3.1 1.9,3.4 1.6,0.3 2.7,0.6 2.7,1.6 0,0.4 -0.2,0.8 -0.6,1.1 -0.4,0.4 -1,0.5 -1.6,0.4 C 8.5,16.4 8.4,16.3 8.2,16.3 8,16.2 7.4,15.9 7.2,15.5 7.1,15.1 7,14.6 7,14.3 v -0.2 c 0,-0.3 -0.3,-0.6 -0.6,-0.6 -0.3,0 -0.6,0.3 -0.6,0.6 0,0 0,1.2 -0.1,1.9 -0.1,1.2 0,2.1 0,2.2 0,0.3 0.3,0.6 0.6,0.6 0.3,0 0.6,-0.3 0.6,-0.6 v -1.1 c 0.4,0.3 1,0.6 1.7,0.7 0.9,0.2 1.8,-0.1 2.5,-0.7 0.6,-0.5 1,-1.3 1,-2 0,-2.5 -2.5,-2.9 -3.7,-3.1 m 16.8,-1.7 c -0.1,0.1 -0.2,0.2 -0.4,0.3 -0.1,0.1 -0.4,0.2 -0.5,0.2 L 24,10.9 c -0.4,0.2 -1,0.3 -1.6,0.4 V 8.5 c 1.6,0 3,0.1 3.3,0.6 v 0.2 c 0,0.2 -0.2,0.6 -0.5,1 m 3.5,5.4 c -0.3,-0.1 -0.7,0.1 -0.8,0.4 -0.2,0.7 -0.4,0.7 -0.5,0.8 -0.1,0.1 -0.3,0 -0.6,-0.1 0,0 -0.1,-0.2 -0.2,-0.3 -0.1,-0.2 -0.2,-1 -0.2,-1.5 0,-1.8 -0.4,-2.8 -0.9,-3.3 0.3,-0.2 0.6,-0.5 0.6,-0.5 0.7,-1 0.9,-1.8 0.5,-2.5 -1,-1.7 -5.3,-1.2 -6.7,-1 -0.3,0 -0.6,0.4 -0.5,0.7 0,0.3 0.4,0.6 0.7,0.5 0.3,0 0.6,-0.1 0.9,-0.1 v 2.8 h -0.3 c -0.3,0 -0.6,0.3 -0.6,0.6 0,0.3 0.3,0.6 0.6,0.6 H 21 v 3.5 l -0.8,0.1 c -0.3,0 -0.6,0.4 -0.5,0.7 0,0.3 0.4,0.6 0.7,0.5 l 2.9,-0.4 c 0.3,0 0.6,-0.4 0.5,-0.7 0,-0.3 -0.4,-0.6 -0.7,-0.5 l -0.9,0.1 v -3.5 c 0.6,-0.1 1.1,-0.2 1.6,-0.4 H 24 c 0.2,0 0.4,0.1 0.5,0.3 0.2,0.3 0.4,0.9 0.5,2.4 0,0.3 0.1,1.5 0.3,2 0.1,0.2 0.4,0.7 0.9,0.9 0.4,0.1 0.9,0.3 1.5,0 0.5,-0.3 0.9,-0.6 1.1,-1.5 0.4,-0.2 0.2,-0.5 -0.1,-0.6 m 21.8,-1.9 c -0.3,0 -0.6,0.3 -0.6,0.6 v 0.8 c 0,0.3 -0.1,0.7 -0.2,0.8 -0.1,0.2 -0.2,0.3 -0.4,0.5 -0.1,0.1 -0.3,0.2 -0.5,0.3 -0.2,0.1 -0.3,0.1 -0.7,0.1 H 47.7 C 46.1,17 45.9,15.7 45.9,15.4 v -2.6 c 0.1,-1 0.3,-1.7 0.7,-2 0.3,-0.2 0.7,-0.1 1.4,0.1 0.8,0.3 1.3,1.2 1.4,1.2 0.1,0.2 0.4,0.3 0.7,0.3 0.3,-0.1 0.4,-0.3 0.4,-0.6 V 9.1 c 0,-0.3 -0.3,-0.6 -0.6,-0.6 -0.3,0 -0.6,0.3 -0.6,0.6 v 1.1 C 49.1,10 48.8,9.9 48.5,9.7 48.2,9.5 47,9 46.1,9.6 45.4,10.1 44.9,11 44.8,12.5 v 2.8 c 0.1,0.9 0.8,2.7 3,2.7 h 0.3 c 0.4,0 0.8,0 1.2,-0.2 0.3,-0.1 0.6,-0.3 0.9,-0.6 0.2,-0.2 0.3,-0.4 0.5,-0.7 0.2,-0.4 0.3,-1.1 0.4,-1.3 v -1 c 0,-0.2 -0.3,-0.4 -0.6,-0.4 m 9.9,4 c 0,-0.3 -0.3,-0.6 -0.6,-0.6 -0.2,0 -0.5,0 -0.8,0.1 0,-1 0,-3.1 -0.1,-9.9 h 0.9 c 0.3,0 0.6,-0.3 0.6,-0.6 0,-0.3 -0.3,-0.6 -0.6,-0.6 l -3.2,0.1 c -0.3,0 -0.6,0.3 -0.6,0.6 0,0.3 0.3,0.6 0.6,0.6 h 1 v 4.2 L 54,12.3 V 8.5 h 1 c 0.3,0 0.6,-0.3 0.6,-0.6 0,-0.3 -0.3,-0.6 -0.6,-0.6 h -3.2 c -0.3,0 -0.6,0.3 -0.6,0.6 0,0.3 0.3,0.6 0.6,0.6 h 1 v 8.1 h -1 c -0.3,0 -0.6,0.3 -0.6,0.6 0,0.3 0.3,0.6 0.6,0.6 l 3.3,0.1 c 0.3,0 0.6,-0.3 0.6,-0.6 0,-0.3 -0.3,-0.6 -0.6,-0.6 h -1 V 13.6 L 57.7,13 v 4.6 c -0.8,0.2 -1.4,0.2 -1.7,0.6 -0.2,0.2 -0.2,0.6 0.1,0.8 0.2,0.2 0.5,0.1 0.9,0 0.3,-0.2 1.5,-0.3 2.9,-0.4 0.3,-0.2 0.5,-0.5 0.5,-0.8"
           inkscape:connector-curvature="0"
           style="fill:#ffffff" />
        <path
           id="path14"
           class="st0"
           d="m 31.6,12.1 0.7,-3.6 1.3,3.3 z m 5.3,1 c -0.2,0.1 -0.5,0.2 -1.1,0.5 L 35,11.7 32.7,6.2 C 32.7,6.1 32.6,5.9 32.5,5.9 32.4,5.8 32.2,5.7 32,5.7 L 29.4,6 c -0.3,0 -0.6,0.3 -0.5,0.7 0,0.3 0.3,0.6 0.7,0.5 0,0 1,-0.1 1.8,-0.2 -0.2,1.1 -1.1,5.6 -1.4,7 l -1.8,-0.1 c -0.3,0 -0.6,0.2 -0.6,0.6 0,0.3 0.2,0.6 0.6,0.6 l 3,0.1 c 0.3,0 0.6,-0.2 0.6,-0.6 0,-0.3 -0.2,-0.6 -0.6,-0.6 l 0.1,-0.9 2.8,-0.5 0.6,1.5 c -0.5,0.3 -0.7,0.4 -1,0.7 -0.2,0.3 -0.1,0.6 0.1,0.8 0.3,0.2 0.7,0.1 0.9,-0.1 0.3,-0.4 1.4,-0.9 2.5,-1.3 0.3,-0.1 0.5,-0.5 0.4,-0.8 -0.1,-0.2 -0.4,-0.4 -0.7,-0.3"
           inkscape:connector-curvature="0"
           style="fill:#ffffff" />
        <path
           id="path16"
           class="st0"
           d="m 44.1,7 c 0,0 -1.8,0.1 -3.8,0.2 l -3.9,0.1 c -0.2,0 -0.3,0.1 -0.5,0.2 -0.1,0.1 -0.2,0.3 -0.1,0.5 l 0.5,3 c 0,0.3 0.4,0.6 0.7,0.5 0.3,0 0.5,-0.3 0.5,-0.6 0,0 -0.2,-1.6 -0.4,-2.4 h 2.6 v 7.9 h -1.3 c -0.3,0 -0.6,0.3 -0.6,0.6 0,0.3 0.3,0.6 0.6,0.6 l 3.7,-0.1 c 0.3,0 0.6,-0.3 0.6,-0.6 0,-0.3 -0.3,-0.6 -0.6,-0.6 H 40.9 V 8.4 c 1,0 1.9,-0.1 2.5,-0.1 v 1.2 c 0,0.6 0.1,0.8 0.1,0.9 0.2,0.3 0.5,0.4 0.8,0.2 0.2,-0.1 0.3,-0.4 0.3,-0.6 0,0 0,-1.4 0.1,-2.2 0,-0.2 0,-0.3 -0.2,-0.5 C 44.5,7.1 44.3,7 44.1,7 M 18.6,14.4 C 18.3,14.4 18,14.7 18,15 v 0.9 c 0,0.2 -0.1,0.6 -0.2,0.8 -0.1,0.2 -0.2,0.3 -0.4,0.5 -0.1,0.1 -0.3,0.2 -0.5,0.3 -0.2,0.1 -0.3,0.1 -0.7,0.1 H 15.8 C 14.2,17.6 14,16.4 14,16.1 v -2.6 c 0.1,-1 0.3,-1.7 0.7,-2 0.3,-0.2 0.7,-0.1 1.4,0.1 0.8,0.3 1.4,1.2 1.4,1.2 0.1,0.2 0.4,0.3 0.7,0.3 0.3,-0.1 0.4,-0.3 0.4,-0.6 V 9.8 c 0,-0.3 -0.3,-0.6 -0.6,-0.6 -0.3,0 -0.6,0.3 -0.6,0.6 v 1.1 c -0.2,-0.2 -0.5,-0.4 -0.8,-0.5 -0.4,-0.2 -1.5,-0.6 -2.5,-0.1 -0.7,0.5 -1.2,1.4 -1.3,2.9 V 16 c 0.1,0.9 0.8,2.7 3.1,2.7 h 0.3 c 0.4,0 0.8,0 1.2,-0.2 0.3,-0.1 0.6,-0.3 0.9,-0.6 0.2,-0.2 0.3,-0.4 0.5,-0.7 0.2,-0.4 0.3,-1.1 0.4,-1.3 v -1 c 0,-0.2 -0.3,-0.5 -0.6,-0.5"
           inkscape:connector-curvature="0"
           style="fill:#ffffff" />
      </g>
    </g>
  </switch>
  <g
     id="g4764"
     transform="matrix(1.505732,0,0,1.505732,-0.03478588,-5.8455674)">
    <path
       style="fill:#ea584d;stroke:#ffffff;stroke-width:0.5;stroke-miterlimit:4;stroke-dasharray:none"
       d="M 4.8736742,19.365513 C 4.3829144,18.873076 3.9813837,18.431368 3.9813837,18.383939 c 0,-0.152884 5.4706715,-5.560142 5.565842,-5.501323 0.050543,0.03124 0.4768823,0.451404 0.9474253,0.933706 0.470543,0.482302 0.873402,0.895019 0.895242,0.917145 0.05493,0.05565 -5.4239942,5.527382 -5.5346466,5.527382 -0.049107,0 -0.4908124,-0.402901 -0.9815722,-0.895336 z m 4.8632223,-0.02031 -0.9125339,-0.91565 0.9125339,-0.91565 c 0.5018945,-0.503607 0.9531785,-0.915649 1.0028555,-0.915649 0.04967,0 0.499193,0.410269 0.998927,0.91171 l 0.908607,0.91171 -0.904924,0.91959 c -0.497708,0.505773 -0.947226,0.919589 -0.998927,0.919589 -0.0517,0 -0.504644,-0.412042 -1.0065385,-0.91565 z M 1.2110745,15.702916 C 0.72031469,15.21048 0.31878402,14.768305 0.31878402,14.720305 c 0,-0.048 0.41228456,-0.498156 0.91618738,-1.000345 l 0.9161882,-0.913069 0.9794934,0.979495 0.9794934,0.979492 -0.9130699,0.916188 c -0.5021878,0.503903 -0.9537139,0.916188 -1.0033904,0.916188 -0.049673,0 -0.4918518,-0.402902 -0.9826116,-0.895338 z M 11.568178,13.851286 8.8222503,11.10432 9.7814987,10.145072 10.740747,9.1858243 l 2.789018,2.7900407 2.789018,2.79004 -0.913057,0.916173 c -0.50218,0.503897 -0.953232,0.916176 -1.002338,0.916176 -0.04911,0 -1.324949,-1.236136 -2.83521,-2.746968 z M 3.0434133,12.651725 C 1.5448671,11.152613 0.31878402,9.8846947 0.31878402,9.8341304 c 0,-0.050567 0.41404989,-0.4993814 0.92011128,-0.9973732 l 0.9201113,-0.9054383 2.7856348,2.7846151 2.785634,2.784615 -0.9355079,0.938417 c -0.514529,0.51613 -0.9560312,0.938418 -0.9811159,0.938418 -0.025088,0 -1.271692,-1.226547 -2.7702383,-2.725659 z M 6.0945402,10.819447 C 5.6037804,10.327012 5.2022497,9.8853041 5.2022497,9.8378749 c 0,-0.1139812 5.4255053,-5.535494 5.5395713,-5.535494 0.11377,0 1.872831,1.7628921 1.872831,1.8769099 0,0.1139812 -5.4255036,5.5354942 -5.5395694,5.5354942 -0.04854,0 -0.4897826,-0.402903 -0.9805424,-0.895338 z m 7.3251978,0 c -0.49076,-0.492435 -0.892291,-0.933239 -0.892291,-0.9795643 0,-0.1139349 1.760968,-1.8749029 1.874903,-1.8749029 0.113935,0 1.874902,1.760968 1.874902,1.8749029 0,0.1139349 -1.760967,1.8749023 -1.874902,1.8749023 -0.04967,0 -0.491851,-0.402903 -0.982612,-0.895338 z M 4.9010076,7.1799291 C 4.3952142,6.6822013 3.9813837,6.2326686 3.9813837,6.1809652 c 0,-0.051699 0.4122846,-0.5048856 0.9161874,-1.0070733 l 0.9161874,-0.91307 0.9592165,0.9592165 0.9592173,0.9592173 -0.95578,0.9528157 -0.95578,0.9528157 z"
       id="path4893"
       inkscape:connector-curvature="0" />
    <path
       style="fill:#63b143;stroke:#ffffff;stroke-width:0.5;stroke-miterlimit:4;stroke-dasharray:none"
       d="M 9.7368957,19.345201 8.8243626,18.42955 9.7368957,17.5139 c 0.5018943,-0.503607 0.9531793,-0.915649 1.0028563,-0.915649 0.04967,0 0.499193,0.410269 0.998927,0.91171 l 0.908608,0.91171 -0.904925,0.91959 c -0.497708,0.505774 -0.947226,0.919589 -0.998927,0.919589 -0.0517,0 -0.504645,-0.412043 -1.0065393,-0.915649 z m 1.8312833,-5.493917 -2.7459287,-2.746967 0.9592484,-0.959248 0.9592483,-0.9592479 2.789018,2.7900409 2.789018,2.79004 -0.913056,0.916174 c -0.502181,0.503896 -0.953232,0.916175 -1.002338,0.916175 -0.04911,0 -1.32495,-1.236135 -2.83521,-2.746967 z M 3.0434133,12.651725 C 1.5448671,11.152613 0.31878322,9.8846947 0.31878322,9.8341304 c 0,-0.050567 0.41404989,-0.4993814 0.92011208,-0.9973724 l 0.9201113,-0.9054383 2.7856348,2.7846143 2.785634,2.784616 -0.9355079,0.938417 c -0.514529,0.516129 -0.9560312,0.938418 -0.9811159,0.938418 -0.025088,0 -1.271692,-1.226547 -2.7702383,-2.72566 z M 4.9010076,7.1799299 C 4.3952142,6.6822029 3.9813837,6.2326694 3.9813837,6.1809668 c 0,-0.051699 0.4122838,-0.5048856 0.9161874,-1.0070733 L 5.8137585,4.2608235 6.772975,5.22004 7.7321923,6.1792573 6.7764123,7.132073 5.8206323,8.0848887 Z"
       id="path4891"
       inkscape:connector-curvature="0" />
  </g>
</svg>
