<?xml version="1.0" encoding="UTF-8" standalone="no"?>
<svg
   xmlns:dc="http://purl.org/dc/elements/1.1/"
   xmlns:cc="http://creativecommons.org/ns#"
   xmlns:rdf="http://www.w3.org/1999/02/22-rdf-syntax-ns#"
   xmlns:svg="http://www.w3.org/2000/svg"
   xmlns="http://www.w3.org/2000/svg"
   xmlns:sodipodi="http://sodipodi.sourceforge.net/DTD/sodipodi-0.dtd"
   xmlns:inkscape="http://www.inkscape.org/namespaces/inkscape"
   id="Layer_1"
   viewBox="0 0 66.1 24.7"
   version="1.1"
   sodipodi:docname="1e9652bec24bcaacf5285be19746a750.svg"
   inkscape:version="0.92.3 (2405546, 2018-03-11)">
  <sodipodi:namedview
     pagecolor="#ffffff"
     bordercolor="#666666"
     borderopacity="1"
     objecttolerance="10"
     gridtolerance="10"
     guidetolerance="10"
     inkscape:pageopacity="0"
     inkscape:pageshadow="2"
     inkscape:window-width="1533"
     inkscape:window-height="836"
     id="namedview25"
     showgrid="false"
     inkscape:zoom="7.4886537"
     inkscape:cx="33.049999"
     inkscape:cy="12.35"
     inkscape:window-x="67"
     inkscape:window-y="27"
     inkscape:window-maximized="1"
     inkscape:current-layer="Layer_1" />
  <metadata
     id="metadata29">
    <rdf:RDF>
      <cc:Work
         rdf:about="">
        <dc:format>image/svg+xml</dc:format>
        <dc:type
           rdf:resource="http://purl.org/dc/dcmitype/StillImage" />
      </cc:Work>
    </rdf:RDF>
  </metadata>
  <defs
     id="defs27" />
  <style
     id="style2">.st0{fill:#fff}.st1{fill:#f9a83a}</style>
  <switch
     id="switch22"
     transform="matrix(0.82210178,0,0,1,12.565076,-0.08916276)">
    <g
       id="g20">
      <g
         id="g18">
        <g
           id="g6">
          <path
             id="path4"
             class="st0"
             d="m 60.2,24.1 c -0.8,0.1 -1.3,0.1 -1.5,0.2 -0.4,0.2 -1.3,0.4 -2.4,0.4 -1.4,0 -2.7,-0.5 -3.8,-1.3 h -0.8 c -0.3,0 -0.5,0 -0.8,-0.1 -1.1,0.4 -2.1,0.4 -2.7,0.4 H 48 c -1.4,0.1 -2.8,-0.2 -4,-0.8 -0.6,0.2 -1.1,0.3 -1.7,0.3 l -3.7,0.1 c -1.7,0 -3.2,-0.6 -4.4,-1.7 -0.5,0 -1,-0.1 -1.4,-0.2 -0.6,0.7 -1.4,1.3 -2.4,1.8 -1.9,0.9 -4,1 -6,0.2 -0.2,-0.1 -0.5,-0.2 -0.7,-0.3 l -2.3,0.3 h -0.7 c -0.3,0.1 -0.5,0.3 -0.7,0.4 -1.5,0.7 -2.9,0.7 -3.5,0.7 H 16 c -1.7,0 -3.4,-0.5 -4.7,-1.4 -0.4,0.1 -0.9,0.2 -1.3,0.2 -0.9,0.6 -2,1 -3.2,1.1 H 6.4 c -3.3,0 -6,-2.5 -6.3,-5.8 V 18.5 C 0.1,18 0,16.9 0.1,15.7 0.1,15.1 0.2,14.2 0.2,14 0.2,13.2 0.4,12.4 0.7,11.6 0.5,10.8 0.6,10 0.7,9.2 V 8.9 C 0.8,8.2 1,6.8 1.7,5.4 3,3 5.4,1.5 8.1,1.5 9,1 9.9,0.8 10.9,0.8 h 0.3 c 2,0.1 3.8,1.1 4.9,2.7 C 17,2.7 18.1,2.2 19.3,2 21.7,1.7 23.7,1.6 25.4,1.9 26.3,1.1 27.5,0.5 28.7,0.4 L 31.3,0 h 0.8 c 1.5,0 3,0.6 4.2,1.6 h 0.2 l 3.8,-0.1 c 1.6,0 3,-0.1 3.3,-0.1 h 0.5 c 1.4,0 2.9,0.5 4,1.4 1.1,-0.8 2.4,-1.2 3.8,-1.2 h 1.3 c 1,-0.6 2.1,-1 3.3,-1 l 3.2,-0.1 h 0.1 c 3.4,0 6.2,2.8 6.3,6.2 0,1.6 -0.5,3 -1.5,4.2 v 2.9 c 0.9,1 1.4,2.3 1.5,3.7 0.2,3.4 -2.4,6.3 -5.9,6.6 z"
             inkscape:connector-curvature="0"
             style="fill:#ffffff" />
        </g>
        <path
           id="path8"
           class="st1"
           d="m 60,20.5 c -1.3,0.1 -2.1,0.2 -2.3,0.3 l -0.1,0.1 c -0.3,0.1 -0.7,0.3 -1.2,0.3 -0.6,0 -1.3,-0.2 -1.8,-0.7 -0.2,-0.2 -0.4,-0.4 -0.5,-0.6 h -2.3 c -0.4,0 -0.8,-0.1 -1.1,-0.3 -0.1,0.1 -0.3,0.1 -0.4,0.2 -0.8,0.4 -1.5,0.4 -2,0.4 h -0.5 c -1.5,0 -2.7,-0.5 -3.5,-1.4 -0.5,0.5 -1.2,0.8 -1.9,0.8 l -3.7,0.1 c -1.3,0 -2.5,-1 -2.7,-2.2 -0.5,0.3 -1,0.5 -1.6,0.5 -0.6,0 -1.2,-0.2 -1.7,-0.5 -0.1,-0.1 -0.2,-0.2 -0.3,-0.2 -0.3,0.2 -0.7,0.2 -1.1,0.2 H 31 c -0.4,1.2 -1.1,2 -2.2,2.5 -0.5,0.2 -1.1,0.4 -1.6,0.4 -0.5,0 -1.1,-0.1 -1.6,-0.3 -0.5,-0.2 -0.9,-0.5 -1.2,-0.8 -0.2,0.1 -0.4,0.1 -0.6,0.2 l -2.9,0.4 h -0.4 c -0.3,0 -0.5,0 -0.8,-0.1 -0.4,0.4 -0.9,0.6 -1.3,0.8 -0.8,0.4 -1.5,0.4 -2,0.4 h -0.5 c -1.8,0 -3.2,-0.8 -4,-1.9 -0.8,0.5 -1.8,0.8 -2.7,0.8 H 8.6 C 8.6,20 8.5,20 8.5,20.1 8,20.6 7.3,21 6.6,21 H 6.4 C 5,21 3.8,19.9 3.7,18.4 v -0.1 c 0,-0.5 -0.1,-1.4 0,-2.4 0,-0.7 0.1,-1.8 0.1,-1.8 0,-0.7 0.3,-1.3 0.7,-1.8 C 4.1,11.5 4,10.6 4.2,9.6 V 9.4 C 4.3,8.8 4.4,7.9 4.8,7 5.5,5.7 6.8,5 8.3,5 H 9 c 0.5,-0.4 1.1,-0.7 1.8,-0.7 1.5,0 2.7,1.3 2.7,2.8 V 8.2 C 14,8 14.6,7.9 15.2,7.9 c 0.3,0 0.5,0 0.8,0.1 0.4,-0.5 1,-0.8 1.6,-0.9 0.1,-0.2 0.2,-0.3 0.3,-0.5 0.4,-0.6 1.1,-1 1.8,-1.1 0.6,-0.1 1.8,-0.2 3.2,-0.2 1.6,0 2.9,0.2 3.9,0.7 0.3,-1.1 1.1,-1.9 2.3,-2.1 l 2.6,-0.4 h 0.4 c 0.8,0 1.5,0.3 2,0.9 0.2,0.2 0.5,0.6 0.6,0.9 l 0.1,0.3 c 0.5,-0.3 1,-0.5 1.6,-0.5 L 40.3,5 c 1.9,0 3.6,-0.1 3.6,-0.2 h 0.2 c 0.7,0 1.5,0.3 2,0.8 0.4,0.4 0.7,0.9 0.8,1.5 h 0.2 c 0.3,0 0.5,0 0.8,0.1 0.4,-0.5 1,-0.8 1.6,-0.9 C 50,5.6 50.9,5 51.9,5 h 2.6 C 55,4.4 55.7,4 56.6,4 h 3.2 c 1.5,0 2.7,1.2 2.8,2.7 0,1.1 -0.6,2.1 -1.5,2.5 v 6.1 c 0.8,0.4 1.4,1.3 1.5,2.3 0.1,1.5 -1.1,2.8 -2.6,2.9 z"
           inkscape:connector-curvature="0"
           style="fill:#f9a83a" />
        <path
           id="path10"
           class="st1"
           d="m 32.3,8.5 -0.7,3.6 2,-0.3 z"
           inkscape:connector-curvature="0"
           style="fill:#f9a83a" />
        <path
           id="path12"
           class="st0"
           d="M 8.4,12 C 7.7,11.9 7.3,11.4 7.5,10 V 9.8 C 7.7,8.6 7.8,8.3 8.4,8.3 c 0.2,0 0.4,0.1 0.6,0.3 0.2,0.2 0.6,0.5 0.8,1.1 0.2,0.4 0.2,0.7 0.3,1 v 0.4 c 0,0.2 0.2,0.4 0.5,0.5 0.3,0.1 0.6,-0.2 0.7,-0.5 0,0 0.2,-3.8 0.2,-3.9 0,-0.3 -0.3,-0.6 -0.6,-0.6 -0.3,0 -0.6,0.3 -0.6,0.6 V 8.3 C 9.8,7.8 9.2,7.3 8.5,7.3 6.6,7 6.4,8.7 6.3,9.7 v 0.2 c -0.2,1.9 0.4,3.1 1.9,3.4 1.6,0.3 2.7,0.6 2.7,1.6 0,0.4 -0.2,0.8 -0.6,1.1 -0.4,0.4 -1,0.5 -1.6,0.4 C 8.5,16.4 8.4,16.3 8.2,16.3 8,16.2 7.4,15.9 7.2,15.5 7.1,15.1 7,14.6 7,14.3 v -0.2 c 0,-0.3 -0.3,-0.6 -0.6,-0.6 -0.3,0 -0.6,0.3 -0.6,0.6 0,0 0,1.2 -0.1,1.9 -0.1,1.2 0,2.1 0,2.2 0,0.3 0.3,0.6 0.6,0.6 0.3,0 0.6,-0.3 0.6,-0.6 v -1.1 c 0.4,0.3 1,0.6 1.7,0.7 0.9,0.2 1.8,-0.1 2.5,-0.7 0.6,-0.5 1,-1.3 1,-2 0,-2.5 -2.5,-2.9 -3.7,-3.1 m 16.8,-1.7 c -0.1,0.1 -0.2,0.2 -0.4,0.3 -0.1,0.1 -0.4,0.2 -0.5,0.2 L 24,10.9 c -0.4,0.2 -1,0.3 -1.6,0.4 V 8.5 c 1.6,0 3,0.1 3.3,0.6 v 0.2 c 0,0.2 -0.2,0.6 -0.5,1 m 3.5,5.4 c -0.3,-0.1 -0.7,0.1 -0.8,0.4 -0.2,0.7 -0.4,0.7 -0.5,0.8 -0.1,0.1 -0.3,0 -0.6,-0.1 0,0 -0.1,-0.2 -0.2,-0.3 -0.1,-0.2 -0.2,-1 -0.2,-1.5 0,-1.8 -0.4,-2.8 -0.9,-3.3 0.3,-0.2 0.6,-0.5 0.6,-0.5 0.7,-1 0.9,-1.8 0.5,-2.5 -1,-1.7 -5.3,-1.2 -6.7,-1 -0.3,0 -0.6,0.4 -0.5,0.7 0,0.3 0.4,0.6 0.7,0.5 0.3,0 0.6,-0.1 0.9,-0.1 v 2.8 h -0.3 c -0.3,0 -0.6,0.3 -0.6,0.6 0,0.3 0.3,0.6 0.6,0.6 H 21 v 3.5 l -0.8,0.1 c -0.3,0 -0.6,0.4 -0.5,0.7 0,0.3 0.4,0.6 0.7,0.5 l 2.9,-0.4 c 0.3,0 0.6,-0.4 0.5,-0.7 0,-0.3 -0.4,-0.6 -0.7,-0.5 l -0.9,0.1 v -3.5 c 0.6,-0.1 1.1,-0.2 1.6,-0.4 H 24 c 0.2,0 0.4,0.1 0.5,0.3 0.2,0.3 0.4,0.9 0.5,2.4 0,0.3 0.1,1.5 0.3,2 0.1,0.2 0.4,0.7 0.9,0.9 0.4,0.1 0.9,0.3 1.5,0 0.5,-0.3 0.9,-0.6 1.1,-1.5 0.4,-0.2 0.2,-0.5 -0.1,-0.6 m 21.8,-1.9 c -0.3,0 -0.6,0.3 -0.6,0.6 v 0.8 c 0,0.3 -0.1,0.7 -0.2,0.8 -0.1,0.2 -0.2,0.3 -0.4,0.5 -0.1,0.1 -0.3,0.2 -0.5,0.3 -0.2,0.1 -0.3,0.1 -0.7,0.1 H 47.7 C 46.1,17 45.9,15.7 45.9,15.4 v -2.6 c 0.1,-1 0.3,-1.7 0.7,-2 0.3,-0.2 0.7,-0.1 1.4,0.1 0.8,0.3 1.3,1.2 1.4,1.2 0.1,0.2 0.4,0.3 0.7,0.3 0.3,-0.1 0.4,-0.3 0.4,-0.6 V 9.1 c 0,-0.3 -0.3,-0.6 -0.6,-0.6 -0.3,0 -0.6,0.3 -0.6,0.6 v 1.1 C 49.1,10 48.8,9.9 48.5,9.7 48.2,9.5 47,9 46.1,9.6 45.4,10.1 44.9,11 44.8,12.5 v 2.8 c 0.1,0.9 0.8,2.7 3,2.7 h 0.3 c 0.4,0 0.8,0 1.2,-0.2 0.3,-0.1 0.6,-0.3 0.9,-0.6 0.2,-0.2 0.3,-0.4 0.5,-0.7 0.2,-0.4 0.3,-1.1 0.4,-1.3 v -1 c 0,-0.2 -0.3,-0.4 -0.6,-0.4 m 9.9,4 c 0,-0.3 -0.3,-0.6 -0.6,-0.6 -0.2,0 -0.5,0 -0.8,0.1 0,-1 0,-3.1 -0.1,-9.9 h 0.9 c 0.3,0 0.6,-0.3 0.6,-0.6 0,-0.3 -0.3,-0.6 -0.6,-0.6 l -3.2,0.1 c -0.3,0 -0.6,0.3 -0.6,0.6 0,0.3 0.3,0.6 0.6,0.6 h 1 v 4.2 L 54,12.3 V 8.5 h 1 c 0.3,0 0.6,-0.3 0.6,-0.6 0,-0.3 -0.3,-0.6 -0.6,-0.6 h -3.2 c -0.3,0 -0.6,0.3 -0.6,0.6 0,0.3 0.3,0.6 0.6,0.6 h 1 v 8.1 h -1 c -0.3,0 -0.6,0.3 -0.6,0.6 0,0.3 0.3,0.6 0.6,0.6 l 3.3,0.1 c 0.3,0 0.6,-0.3 0.6,-0.6 0,-0.3 -0.3,-0.6 -0.6,-0.6 h -1 V 13.6 L 57.7,13 v 4.6 c -0.8,0.2 -1.4,0.2 -1.7,0.6 -0.2,0.2 -0.2,0.6 0.1,0.8 0.2,0.2 0.5,0.1 0.9,0 0.3,-0.2 1.5,-0.3 2.9,-0.4 0.3,-0.2 0.5,-0.5 0.5,-0.8"
           inkscape:connector-curvature="0"
           style="fill:#ffffff" />
        <path
           id="path14"
           class="st0"
           d="m 31.6,12.1 0.7,-3.6 1.3,3.3 z m 5.3,1 c -0.2,0.1 -0.5,0.2 -1.1,0.5 L 35,11.7 32.7,6.2 C 32.7,6.1 32.6,5.9 32.5,5.9 32.4,5.8 32.2,5.7 32,5.7 L 29.4,6 c -0.3,0 -0.6,0.3 -0.5,0.7 0,0.3 0.3,0.6 0.7,0.5 0,0 1,-0.1 1.8,-0.2 -0.2,1.1 -1.1,5.6 -1.4,7 l -1.8,-0.1 c -0.3,0 -0.6,0.2 -0.6,0.6 0,0.3 0.2,0.6 0.6,0.6 l 3,0.1 c 0.3,0 0.6,-0.2 0.6,-0.6 0,-0.3 -0.2,-0.6 -0.6,-0.6 l 0.1,-0.9 2.8,-0.5 0.6,1.5 c -0.5,0.3 -0.7,0.4 -1,0.7 -0.2,0.3 -0.1,0.6 0.1,0.8 0.3,0.2 0.7,0.1 0.9,-0.1 0.3,-0.4 1.4,-0.9 2.5,-1.3 0.3,-0.1 0.5,-0.5 0.4,-0.8 -0.1,-0.2 -0.4,-0.4 -0.7,-0.3"
           inkscape:connector-curvature="0"
           style="fill:#ffffff" />
        <path
           id="path16"
           class="st0"
           d="m 44.1,7 c 0,0 -1.8,0.1 -3.8,0.2 l -3.9,0.1 c -0.2,0 -0.3,0.1 -0.5,0.2 -0.1,0.1 -0.2,0.3 -0.1,0.5 l 0.5,3 c 0,0.3 0.4,0.6 0.7,0.5 0.3,0 0.5,-0.3 0.5,-0.6 0,0 -0.2,-1.6 -0.4,-2.4 h 2.6 v 7.9 h -1.3 c -0.3,0 -0.6,0.3 -0.6,0.6 0,0.3 0.3,0.6 0.6,0.6 l 3.7,-0.1 c 0.3,0 0.6,-0.3 0.6,-0.6 0,-0.3 -0.3,-0.6 -0.6,-0.6 H 40.9 V 8.4 c 1,0 1.9,-0.1 2.5,-0.1 v 1.2 c 0,0.6 0.1,0.8 0.1,0.9 0.2,0.3 0.5,0.4 0.8,0.2 0.2,-0.1 0.3,-0.4 0.3,-0.6 0,0 0,-1.4 0.1,-2.2 0,-0.2 0,-0.3 -0.2,-0.5 C 44.5,7.1 44.3,7 44.1,7 M 18.6,14.4 C 18.3,14.4 18,14.7 18,15 v 0.9 c 0,0.2 -0.1,0.6 -0.2,0.8 -0.1,0.2 -0.2,0.3 -0.4,0.5 -0.1,0.1 -0.3,0.2 -0.5,0.3 -0.2,0.1 -0.3,0.1 -0.7,0.1 H 15.8 C 14.2,17.6 14,16.4 14,16.1 v -2.6 c 0.1,-1 0.3,-1.7 0.7,-2 0.3,-0.2 0.7,-0.1 1.4,0.1 0.8,0.3 1.4,1.2 1.4,1.2 0.1,0.2 0.4,0.3 0.7,0.3 0.3,-0.1 0.4,-0.3 0.4,-0.6 V 9.8 c 0,-0.3 -0.3,-0.6 -0.6,-0.6 -0.3,0 -0.6,0.3 -0.6,0.6 v 1.1 c -0.2,-0.2 -0.5,-0.4 -0.8,-0.5 -0.4,-0.2 -1.5,-0.6 -2.5,-0.1 -0.7,0.5 -1.2,1.4 -1.3,2.9 V 16 c 0.1,0.9 0.8,2.7 3.1,2.7 h 0.3 c 0.4,0 0.8,0 1.2,-0.2 0.3,-0.1 0.6,-0.3 0.9,-0.6 0.2,-0.2 0.3,-0.4 0.5,-0.7 0.2,-0.4 0.3,-1.1 0.4,-1.3 v -1 c 0,-0.2 -0.3,-0.5 -0.6,-0.5"
           inkscape:connector-curvature="0"
           style="fill:#ffffff" />
      </g>
    </g>
  </switch>
  <g
     id="g4917"
     transform="matrix(0.79770713,0,0,0.79770713,18.857331,-10.728454)">
    <path
       style="fill:#ea584d;stroke-width:0.10931925"
       d="m -17.529813,37.725583 c -0.615213,-0.617315 -1.118569,-1.171037 -1.118569,-1.230494 0,-0.191654 6.857995,-6.970154 6.9773,-6.896419 0.06336,0.03916 0.597816,0.565877 1.187686,1.170487 0.5898688,0.604611 1.0948898,1.121989 1.1222688,1.149727 0.06886,0.06976 -6.7994808,6.929086 -6.9381938,6.929086 -0.06156,0 -0.615279,-0.505074 -1.230492,-1.122387 z m 6.096501,-0.02546 -1.143946,-1.147852 1.143946,-1.147852 c 0.629171,-0.631319 1.194898,-1.147852 1.257172,-1.147852 0.06227,0 0.6257848,0.514311 1.2522478,1.142914 l 1.139024,1.142913 -1.134407,1.152791 c -0.623923,0.634034 -1.1874348,1.15279 -1.2522478,1.15279 -0.06481,0 -0.632618,-0.516533 -1.261789,-1.147852 z m -10.68791,-4.565945 c -0.615213,-0.617314 -1.118569,-1.171622 -1.118569,-1.231794 0,-0.06017 0.516837,-0.624485 1.148526,-1.254025 l 1.148527,-1.144617 1.227886,1.227887 1.227886,1.227885 -1.144618,1.148526 c -0.629539,0.63169 -1.195569,1.148527 -1.257843,1.148527 -0.06227,0 -0.616582,-0.505075 -1.231795,-1.122389 z m 12.9835918,-2.32119 -3.4422758,-3.443577 1.202507,-1.202507 1.202507,-1.202506 3.4962929,3.497575 3.496293,3.497574 -1.144601,1.148509 c -0.62953,0.631681 -1.194965,1.148511 -1.256524,1.148511 -0.06156,0 -1.660947,-1.549611 -3.5541991,-3.443579 z M -19.824215,29.309226 c -1.878567,-1.879276 -3.415576,-3.468729 -3.415576,-3.532116 0,-0.06339 0.51905,-0.626021 1.153445,-1.2503 l 1.153445,-1.135051 3.492052,3.490774 3.492051,3.490773 -1.172746,1.176393 c -0.64501,0.647017 -1.198474,1.176394 -1.22992,1.176394 -0.03145,0 -1.594184,-1.53759 -3.472751,-3.416867 z m 3.824871,-2.29693 c -0.615213,-0.617313 -1.118569,-1.171035 -1.118569,-1.230492 0,-0.142886 6.801375,-6.939256 6.944367,-6.939256 0.142622,0 2.3477679,2.209949 2.3477679,2.352881 0,0.142886 -6.8013729,6.939256 -6.9443649,6.939256 -0.06085,0 -0.613988,-0.505076 -1.229201,-1.122389 z m 9.1828159,0 c -0.615213,-0.617313 -1.118569,-1.169902 -1.118569,-1.227975 0,-0.142828 2.207536,-2.350365 2.350364,-2.350365 0.142828,0 2.350364,2.207537 2.350364,2.350365 0,0.142828 -2.207536,2.350364 -2.350364,2.350364 -0.06227,0 -0.616581,-0.505076 -1.231795,-1.122389 z M -17.495548,22.449822 c -0.634059,-0.623948 -1.152834,-1.187479 -1.152834,-1.252294 0,-0.06481 0.516837,-0.632921 1.148526,-1.26246 l 1.148526,-1.144618 1.202467,1.202467 1.202468,1.202468 -1.198159,1.194443 -1.198159,1.194443 z"
       id="path4893"
       inkscape:connector-curvature="0" />
    <path
       style="fill:#63b143;stroke-width:0.10931925"
       d="m -11.433313,37.70012 -1.143945,-1.147853 1.143945,-1.147852 c 0.629171,-0.631318 1.194899,-1.147852 1.257173,-1.147852 0.06227,0 0.6257854,0.514311 1.2522484,1.142914 l 1.139024,1.142913 -1.134407,1.152792 c -0.623923,0.634034 -1.1874364,1.15279 -1.2522484,1.15279 -0.06481,0 -0.632619,-0.516534 -1.26179,-1.147852 z m 2.2956834,-6.887135 -3.4422764,-3.443578 1.202507,-1.202507 1.202507,-1.202506 3.4962934,3.497575 3.496293,3.497575 -1.144601,1.148509 c -0.62953,0.63168 -1.194965,1.14851 -1.256524,1.14851 -0.06156,0 -1.660947,-1.54961 -3.554199,-3.443578 z M -19.824215,29.309227 c -1.878567,-1.879277 -3.415577,-3.46873 -3.415577,-3.532117 0,-0.06339 0.51905,-0.626021 1.153446,-1.250299 l 1.153445,-1.135051 3.492052,3.490773 3.492051,3.490774 -1.172746,1.176393 c -0.64501,0.647016 -1.198474,1.176395 -1.22992,1.176395 -0.03145,0 -1.594184,-1.537591 -3.472751,-3.416868 z m 2.328667,-6.859404 c -0.634059,-0.623947 -1.152834,-1.187479 -1.152834,-1.252293 0,-0.06481 0.516836,-0.632921 1.148526,-1.26246 l 1.148526,-1.144618 1.202467,1.202467 1.202468,1.202468 -1.198159,1.194443 -1.198159,1.194443 z"
       id="path4891"
       inkscape:connector-curvature="0" />
  </g>
</svg>
